<?xml version="1.0" encoding="UTF-8" standalone="no"?>
<!DOCTYPE svg PUBLIC "-//W3C//DTD SVG 1.1//EN"
 "http://www.w3.org/Graphics/SVG/1.1/DTD/svg11.dtd">
<!-- Generated by graphviz version 2.44.1 (20200629.0846)
 -->
<!-- Title: g Pages: 1 -->
<svg width="1068pt" height="746pt"
 viewBox="0.00 0.00 1068.00 745.60" xmlns="http://www.w3.org/2000/svg" xmlns:xlink="http://www.w3.org/1999/xlink">
<g id="graph0" class="graph" transform="scale(1 1) rotate(0) translate(4 741.6)">
<title>g</title>
<polygon fill="white" stroke="transparent" points="-4,4 -4,-741.6 1064,-741.6 1064,4 -4,4"/>
<g id="clust1" class="cluster">
<title>cluster_180125183</title>
<polygon fill="#ececec" stroke="black" points="8,-8 8,-729.6 1052,-729.6 1052,-8 8,-8"/>
<text text-anchor="middle" x="39.71" y="-713" font-family="Times New Roman,serif" font-size="14.00">calcount</text>
</g>
<!-- CustomFoodsActivity2075058378 -->
<g id="node1" class="node">
<title>CustomFoodsActivity2075058378</title>
<polygon fill="#ffffff" stroke="transparent" points="250,-342 16,-342 16,-148 250,-148 250,-342"/>
<text text-anchor="start" x="21" y="-324.4" font-family="Times New Roman,serif" font-size="14.00">(C)CustomFoodsActivity</text>
<text text-anchor="start" x="21" y="-300.4" font-family="Times New Roman,serif" font-size="14.00">&#45; &#160;&#160;mealType: String[] [0..*]</text>
<text text-anchor="start" x="21" y="-276.4" font-family="Times New Roman,serif" font-size="14.00">&#45; &#160;&#160;mealTypeSpinner: Spinner [0..1]</text>
<text text-anchor="start" x="21" y="-252.4" font-family="Times New Roman,serif" font-size="14.00">&#45; &#160;&#160;selectDay: String[] [0..*]</text>
<text text-anchor="start" x="21" y="-228.4" font-family="Times New Roman,serif" font-size="14.00">&#45; &#160;&#160;selectDaySpinner: Spinner [0..1]</text>
<text text-anchor="start" x="21" y="-204.4" font-family="Times New Roman,serif" font-size="14.00">&#45; &#160;&#160;selectedDay: String [0..1]</text>
<text text-anchor="start" x="21" y="-180.4" font-family="Times New Roman,serif" font-size="14.00">&#45; &#160;&#160;selectedMealType: String [0..1]</text>
<text text-anchor="start" x="20.65" y="-156.4" font-family="Times New Roman,serif" font-size="14.00"># onCreate(savedInstanceState: Bundle)</text>
<polygon fill="black" stroke="black" points="16,-317 16,-317 250,-317 250,-317 16,-317"/>
<polygon fill="black" stroke="black" points="16,-173 16,-173 250,-173 250,-173 16,-173"/>
<polygon fill="none" stroke="black" points="16,-148 16,-342 250,-342 250,-148 16,-148"/>
</g>
<!-- DailyHistoryPage2075058378 -->
<g id="node2" class="node">
<title>DailyHistoryPage2075058378</title>
<polygon fill="#ffffff" stroke="transparent" points="502,-294 268,-294 268,-196 502,-196 502,-294"/>
<text text-anchor="start" x="273" y="-276.4" font-family="Times New Roman,serif" font-size="14.00">(C)DailyHistoryPage</text>
<text text-anchor="start" x="272.65" y="-252.4" font-family="Times New Roman,serif" font-size="14.00"># onCreate(savedInstanceState: Bundle)</text>
<text text-anchor="start" x="273" y="-228.4" font-family="Times New Roman,serif" font-size="14.00"># onResume()</text>
<text text-anchor="start" x="273" y="-204.4" font-family="Times New Roman,serif" font-size="14.00">&#45; populateHistory()</text>
<polygon fill="black" stroke="black" points="268,-269 268,-269 502,-269 502,-269 268,-269"/>
<polygon fill="none" stroke="black" points="268,-196 268,-294 502,-294 502,-196 268,-196"/>
</g>
<!-- DataContainer2075058378 -->
<g id="node3" class="node">
<title>DataContainer2075058378</title>
<polygon fill="#ffffff" stroke="transparent" points="998,-696.8 700,-696.8 700,-526.8 998,-526.8 998,-696.8"/>
<text text-anchor="start" x="705" y="-679.2" font-family="Times New Roman,serif" font-size="14.00">(C)DataContainer</text>
<text text-anchor="start" x="705" y="-655.2" font-family="Times New Roman,serif" font-size="14.00">+ LoadData(ctx: Context)</text>
<text text-anchor="start" x="705" y="-631.2" font-family="Times New Roman,serif" font-size="14.00">+ SaveData(ctx: Context)</text>
<text text-anchor="start" x="705" y="-607.2" font-family="Times New Roman,serif" font-size="14.00">+ clearData(ctx: Context)</text>
<text text-anchor="start" x="704.51" y="-583.2" font-family="Times New Roman,serif" font-size="14.00">+ mealTypeToString(mealType: MealType): String</text>
<text text-anchor="start" x="705" y="-559.2" font-family="Times New Roman,serif" font-size="14.00">+ setup()</text>
<text text-anchor="start" x="705" y="-535.2" font-family="Times New Roman,serif" font-size="14.00">+ sort()</text>
<polygon fill="black" stroke="black" points="700,-671.8 700,-671.8 998,-671.8 998,-671.8 700,-671.8"/>
<polygon fill="none" stroke="black" points="700,-526.8 700,-696.8 998,-696.8 998,-526.8 700,-526.8"/>
</g>
<!-- MainActivity2075058378 -->
<g id="node4" class="node">
<title>MainActivity2075058378</title>
<polygon fill="#ffffff" stroke="transparent" points="569,-636.8 335,-636.8 335,-586.8 569,-586.8 569,-636.8"/>
<text text-anchor="start" x="340" y="-619.2" font-family="Times New Roman,serif" font-size="14.00">(C)MainActivity</text>
<text text-anchor="start" x="339.65" y="-595.2" font-family="Times New Roman,serif" font-size="14.00"># onCreate(savedInstanceState: Bundle)</text>
<polygon fill="black" stroke="black" points="335,-611.8 335,-611.8 569,-611.8 569,-611.8 335,-611.8"/>
<polygon fill="none" stroke="black" points="335,-586.8 335,-636.8 569,-636.8 569,-586.8 335,-586.8"/>
</g>
<!-- MainActivity2075058378&#45;&gt;CustomFoodsActivity2075058378 -->
<g id="edge1" class="edge">
<title>MainActivity2075058378&#45;&gt;CustomFoodsActivity2075058378</title>
<path fill="none" stroke="black" d="M412.84,-586.63C363.97,-556.46 286.74,-508.8 286.74,-508.8 286.74,-508.8 259,-474 259,-474 259,-474 224.03,-410.72 190.93,-350.83"/>
<polygon fill="black" stroke="black" points="193.97,-349.09 186.07,-342.03 187.84,-352.48 193.97,-349.09"/>
<text text-anchor="middle" x="355.63" y="-496.2" font-family="Times New Roman,serif" font-size="14.00">onCreate() &#45;&gt; onCreate()</text>
</g>
<!-- MainActivity2075058378&#45;&gt;DailyHistoryPage2075058378 -->
<g id="edge2" class="edge">
<title>MainActivity2075058378&#45;&gt;DailyHistoryPage2075058378</title>
<path fill="none" stroke="black" d="M447.55,-586.58C437.08,-529.58 410.65,-385.65 395.71,-304.32"/>
<polygon fill="black" stroke="black" points="399.11,-303.44 393.86,-294.23 392.22,-304.7 399.11,-303.44"/>
<text text-anchor="middle" x="501.63" y="-496.2" font-family="Times New Roman,serif" font-size="14.00">onCreate() &#45;&gt; onCreate()</text>
</g>
<!-- OverviewPage2075058378 -->
<g id="node5" class="node">
<title>OverviewPage2075058378</title>
<polygon fill="#ffffff" stroke="transparent" points="754,-270 520,-270 520,-220 754,-220 754,-270"/>
<text text-anchor="start" x="525" y="-252.4" font-family="Times New Roman,serif" font-size="14.00">(C)OverviewPage</text>
<text text-anchor="start" x="524.65" y="-228.4" font-family="Times New Roman,serif" font-size="14.00"># onCreate(savedInstanceState: Bundle)</text>
<polygon fill="black" stroke="black" points="520,-245 520,-245 754,-245 754,-245 520,-245"/>
<polygon fill="none" stroke="black" points="520,-220 520,-270 754,-270 754,-220 520,-220"/>
</g>
<!-- MainActivity2075058378&#45;&gt;OverviewPage2075058378 -->
<g id="edge3" class="edge">
<title>MainActivity2075058378&#45;&gt;OverviewPage2075058378</title>
<path fill="none" stroke="black" d="M481.15,-586.63C517.52,-556.46 575,-508.8 575,-508.8 575,-508.8 612.18,-351.19 628.96,-280.09"/>
<polygon fill="black" stroke="black" points="632.39,-280.79 631.28,-270.25 625.58,-279.18 632.39,-280.79"/>
<text text-anchor="middle" x="647.63" y="-496.2" font-family="Times New Roman,serif" font-size="14.00">onCreate() &#45;&gt; onCreate()</text>
</g>
<!-- SettingsPage2075058378 -->
<g id="node6" class="node">
<title>SettingsPage2075058378</title>
<polygon fill="#ffffff" stroke="transparent" points="1044,-474 772,-474 772,-16 1044,-16 1044,-474"/>
<text text-anchor="start" x="777" y="-456.4" font-family="Times New Roman,serif" font-size="14.00">(C)SettingsPage</text>
<text text-anchor="start" x="777" y="-432.4" font-family="Times New Roman,serif" font-size="14.00">&#45; &#160;&#160;calorieGoalInput: EditText [0..1]</text>
<text text-anchor="start" x="777" y="-408.4" font-family="Times New Roman,serif" font-size="14.00">&#45; &#160;&#160;customFoodBtn: Button [0..1]</text>
<text text-anchor="start" x="777" y="-384.4" font-family="Times New Roman,serif" font-size="14.00">&#45; &#160;&#160;dailyHistoryBtn: Button [0..1]</text>
<text text-anchor="start" x="777" y="-360.4" font-family="Times New Roman,serif" font-size="14.00">&#45; &#160;&#160;eraseHistory: Button [0..1]</text>
<text text-anchor="start" x="777" y="-336.4" font-family="Times New Roman,serif" font-size="14.00">&#45; &#160;&#160;languageButton: Button [0..1]</text>
<text text-anchor="start" x="777" y="-312.4" font-family="Times New Roman,serif" font-size="14.00">&#45; &#160;&#160;notificationsGroup: RadioGroup [0..1]</text>
<text text-anchor="start" x="777" y="-288.4" font-family="Times New Roman,serif" font-size="14.00">&#45; &#160;&#160;notificationsOff: RadioButton [0..1]</text>
<text text-anchor="start" x="777" y="-264.4" font-family="Times New Roman,serif" font-size="14.00">&#45; &#160;&#160;notificationsOn: RadioButton [0..1]</text>
<text text-anchor="start" x="777" y="-240.4" font-family="Times New Roman,serif" font-size="14.00">&#45; &#160;&#160;overviewBtn: Button [0..1]</text>
<text text-anchor="start" x="776.83" y="-216.4" font-family="Times New Roman,serif" font-size="14.00">&#45; &#160;&#160;sharedPreferences: SharedPreferences [0..1]</text>
<text text-anchor="start" x="777" y="-192.4" font-family="Times New Roman,serif" font-size="14.00">&#45; eraseAllSettings()</text>
<text text-anchor="start" x="777" y="-168.4" font-family="Times New Roman,serif" font-size="14.00">&#45; loadSettings()</text>
<text text-anchor="start" x="777" y="-144.4" font-family="Times New Roman,serif" font-size="14.00"># onCreate(savedInstanceState: Bundle)</text>
<text text-anchor="start" x="777" y="-120.4" font-family="Times New Roman,serif" font-size="14.00"># onPause()</text>
<text text-anchor="start" x="777" y="-96.4" font-family="Times New Roman,serif" font-size="14.00"># onStart()</text>
<text text-anchor="start" x="777" y="-72.4" font-family="Times New Roman,serif" font-size="14.00">&#45; saveCalorieGoal(goal: int)</text>
<text text-anchor="start" x="777" y="-48.4" font-family="Times New Roman,serif" font-size="14.00">&#45; saveNotificationsSetting(enabled: boolean)</text>
<text text-anchor="start" x="777" y="-24.4" font-family="Times New Roman,serif" font-size="14.00">&#45; showCalorieInputDialog()</text>
<polygon fill="black" stroke="black" points="772,-449 772,-449 1044,-449 1044,-449 772,-449"/>
<polygon fill="black" stroke="black" points="772,-209 772,-209 1044,-209 1044,-209 772,-209"/>
<polygon fill="none" stroke="black" points="772,-16 772,-474 1044,-474 1044,-16 772,-16"/>
</g>
<!-- MainActivity2075058378&#45;&gt;SettingsPage2075058378 -->
<g id="edge4" class="edge">
<title>MainActivity2075058378&#45;&gt;SettingsPage2075058378</title>
<path fill="none" stroke="black" d="M515.41,-586.76C594.94,-556.6 721,-508.8 721,-508.8 721,-508.8 763,-474 763,-474 763,-474 764.22,-472.09 766.43,-468.61"/>
<polygon fill="black" stroke="black" points="769.44,-470.4 771.85,-460.08 763.53,-466.64 769.44,-470.4"/>
<text text-anchor="middle" x="809.63" y="-496.2" font-family="Times New Roman,serif" font-size="14.00">onCreate() &#45;&gt; onCreate()</text>
</g>
</g>
</svg>
